# xmcd
#
# Track frame offsets: 
#        150
#        15855
#        29800
#        46310
#        60583
#        82962
#        94454
#        107706
#        118787
#        133430
#        152149
#        163803
#        181484
#        193840
#        211987
#        228490
#        245111
#        257820
#        273143
#        290128
#        304868
#        325386
#
# Disc length: 4645 seconds
#
# Revision: 0
# Processed by: cddbd v1.5.2PL0 Copyright (c) Steve Scherf et al.
# Submitted via: ExactAudioCopy v1.0b3
#
DISCID=4f122316
DTITLE=Lisa Hudson - Mona Lisa Hudson
DYEAR=2010
DGENRE=Country
TTITLE0=Never Knew A Night Could Be So Long
TTITLE1=She Won't Settle For Less Than Love
TTITLE2=I'd Forgotten What It Feels Like To Love
TTITLE3=I'm Gonna Love You More
TTITLE4=Texas Man In Mind
TTITLE5=This Ol' Heart's Goin' Down
TTITLE6=Carolina Moon
TTITLE7=From The Day I Do
TTITLE8=Party Doll
TTITLE9=I'm So Lonesome I Could Cry
TTITLE10=Honky Tonk Merry-Go-Round
TTITLE11=Baby I Love You
TTITLE12=The Wishbone Song
TTITLE13=I've Just Seen A Face
TTITLE14=I Don't Know Why
TTITLE15=You've Got A Lover
TTITLE16=Farmer's Daughter
TTITLE17=Mournin' Dove
TTITLE18=Main Thang
TTITLE19=Rings
TTITLE20=Nights In White Satin
TTITLE21=Mona Lisa
EXTD=
EXTT0=
EXTT1=
EXTT2=
EXTT3=
EXTT4=
EXTT5=
EXTT6=
EXTT7=
EXTT8=
EXTT9=
EXTT10=
EXTT11=
EXTT12=
EXTT13=
EXTT14=
EXTT15=
EXTT16=
EXTT17=
EXTT18=
EXTT19=
EXTT20=
EXTT21=
PLAYORDER=
